<?xml version="1.0" standalone="no"?>
<!DOCTYPE svg PUBLIC "-//W3C//DTD SVG 20010904//EN"
 "http://www.w3.org/TR/2001/REC-SVG-20010904/DTD/svg10.dtd">
<svg version="1.0" xmlns="http://www.w3.org/2000/svg"
 width="512.000000pt" height="512.000000pt" viewBox="0 0 512.000000 512.000000"
 preserveAspectRatio="xMidYMid meet">

<g transform="translate(0.000000,512.000000) scale(0.100000,-0.100000)"
fill="#000000" stroke="none">
<path d="M3449 4871 c-23 -23 -29 -38 -29 -71 0 -62 38 -96 116 -105 100 -11
170 -25 236 -46 251 -81 467 -267 585 -504 32 -65 73 -176 73 -200 0 -10 -36
3 -122 46 -106 52 -129 60 -163 55 -50 -6 -85 -43 -85 -91 0 -72 8 -78 262
-206 136 -68 251 -119 267 -119 53 0 78 34 197 271 128 256 134 281 85 330
-22 22 -39 29 -68 29 -56 0 -78 -21 -129 -122 -25 -49 -48 -87 -51 -84 -3 3
-23 48 -43 99 -120 305 -360 546 -665 666 -117 46 -276 81 -370 81 -60 0 -69
-3 -96 -29z"/>
<path d="M500 1483 c-39 -14 -73 -68 -175 -273 -121 -245 -128 -270 -79 -321
22 -23 37 -29 69 -29 58 0 80 20 131 122 25 50 49 87 53 82 4 -5 20 -43 35
-84 93 -247 278 -467 509 -602 153 -89 384 -158 532 -158 60 0 69 3 96 29 47
47 36 130 -20 161 -10 5 -61 14 -112 20 -107 13 -276 66 -358 112 -182 102
-328 253 -419 434 -33 65 -72 173 -72 198 0 11 33 -1 121 -44 129 -64 153 -69
199 -45 35 18 50 43 50 84 0 68 -10 76 -262 202 -224 112 -261 126 -298 112z"/>
</g>
</svg>
